<svg width="28" height="28" viewBox="0 0 28 28" fill="none" xmlns="http://www.w3.org/2000/svg">
<mask id="mask0_28_5202" style="mask-type:alpha" maskUnits="userSpaceOnUse" x="0" y="0" width="28" height="28">
<rect width="28" height="28" fill="#D9D9D9"/>
</mask>
<g mask="url(#mask0_28_5202)">
<path d="M20.9999 23.3339H18.6666C18.336 23.3339 18.0589 23.2221 17.8353 22.9985C17.6117 22.7749 17.4999 22.4978 17.4999 22.1672C17.4999 21.8367 17.6117 21.5596 17.8353 21.336C18.0589 21.1124 18.336 21.0006 18.6666 21.0006H20.9999V18.6672C20.9999 18.3367 21.1117 18.0596 21.3353 17.836C21.5589 17.6124 21.836 17.5006 22.1666 17.5006C22.4971 17.5006 22.7742 17.6124 22.9978 17.836C23.2214 18.0596 23.3332 18.3367 23.3332 18.6672V21.0006H25.6666C25.9971 21.0006 26.2742 21.1124 26.4978 21.336C26.7214 21.5596 26.8332 21.8367 26.8332 22.1672C26.8332 22.4978 26.7214 22.7749 26.4978 22.9985C26.2742 23.2221 25.9971 23.3339 25.6666 23.3339H23.3332V25.6672C23.3332 25.9978 23.2214 26.2749 22.9978 26.4985C22.7742 26.7221 22.4971 26.8339 22.1666 26.8339C21.836 26.8339 21.5589 26.7221 21.3353 26.4985C21.1117 26.2749 20.9999 25.9978 20.9999 25.6672V23.3339ZM3.4999 23.3339C3.16935 23.3339 2.89226 23.2221 2.66865 22.9985C2.44504 22.7749 2.33324 22.4978 2.33324 22.1672V16.3339H2.12907C1.75962 16.3339 1.45824 16.1929 1.2249 15.911C0.991569 15.629 0.913791 15.3033 0.991569 14.9339L2.15824 9.10057C2.21657 8.82835 2.35268 8.60474 2.56657 8.42974C2.78046 8.25474 3.02351 8.16724 3.29574 8.16724H18.8707C19.143 8.16724 19.386 8.25474 19.5999 8.42974C19.8138 8.60474 19.9499 8.82835 20.0082 9.10057L21.1749 14.9339C21.2527 15.3033 21.1749 15.629 20.9416 15.911C20.7082 16.1929 20.4068 16.3339 20.0374 16.3339H19.8332V18.6672C19.8332 18.9978 19.7214 19.2749 19.4978 19.4985C19.2742 19.7221 18.9971 19.8339 18.6666 19.8339C18.336 19.8339 18.0589 19.7221 17.8353 19.4985C17.6117 19.2749 17.4999 18.9978 17.4999 18.6672V16.3339H12.8332V22.1672C12.8332 22.4978 12.7214 22.7749 12.4978 22.9985C12.2742 23.2221 11.9971 23.3339 11.6666 23.3339H3.4999ZM4.66657 21.0006H10.4999V16.3339H4.66657V21.0006ZM3.4999 7.00057C3.16935 7.00057 2.89226 6.88876 2.66865 6.66515C2.44504 6.44154 2.33324 6.16446 2.33324 5.8339C2.33324 5.50335 2.44504 5.22626 2.66865 5.00265C2.89226 4.77904 3.16935 4.66724 3.4999 4.66724H18.6666C18.9971 4.66724 19.2742 4.77904 19.4978 5.00265C19.7214 5.22626 19.8332 5.50335 19.8332 5.8339C19.8332 6.16446 19.7214 6.44154 19.4978 6.66515C19.2742 6.88876 18.9971 7.00057 18.6666 7.00057H3.4999Z" fill="#41558D"/>
</g>
</svg>
