<svg width="33" height="32" viewBox="0 0 33 32" fill="none" xmlns="http://www.w3.org/2000/svg">
<mask id="mask0_28_5194" style="mask-type:alpha" maskUnits="userSpaceOnUse" x="0" y="0" width="33" height="32">
<rect x="0.5" width="32" height="32" fill="#D9D9D9"/>
</mask>
<g mask="url(#mask0_28_5194)">
<path d="M23.5999 29.3345C21.8666 29.3345 20.3888 28.7179 19.1666 27.4845C17.9444 26.2512 17.3333 24.7901 17.3333 23.1012C17.3333 21.3679 17.9444 19.8845 19.1666 18.6512C20.3888 17.4179 21.8666 16.8012 23.5999 16.8012C25.311 16.8012 26.7833 17.4179 28.0166 18.6512C29.2499 19.8845 29.8666 21.3679 29.8666 23.1012C29.8666 24.7901 29.2499 26.2512 28.0166 27.4845C26.7833 28.7179 25.311 29.3345 23.5999 29.3345ZM5.83325 14.6012V8.03452C5.83325 7.6123 5.95547 7.22896 6.19992 6.88452C6.44436 6.54008 6.75547 6.29008 7.13325 6.13452L15.7999 2.90119C16.0444 2.8123 16.2777 2.76785 16.4999 2.76785C16.7221 2.76785 16.9555 2.8123 17.1999 2.90119L25.8666 6.13452C26.2444 6.29008 26.5555 6.54008 26.7999 6.88452C27.0444 7.22896 27.1666 7.6123 27.1666 8.03452V14.3679C27.1666 14.679 27.0444 14.9179 26.7999 15.0845C26.5555 15.2512 26.2888 15.279 25.9999 15.1679C25.6221 15.0567 25.2277 14.9679 24.8166 14.9012C24.4055 14.8345 23.9999 14.8012 23.5999 14.8012C21.311 14.8012 19.361 15.6123 17.7499 17.2345C16.1388 18.8567 15.3333 20.8123 15.3333 23.1012C15.3333 23.9901 15.4833 24.8679 15.7833 25.7345C16.0833 26.6012 16.511 27.3901 17.0666 28.1012C17.2888 28.3901 17.3166 28.679 17.1499 28.9679C16.9833 29.2567 16.7444 29.3567 16.4333 29.2679C14.8999 28.8234 13.5444 28.2512 12.3666 27.5512C11.1888 26.8512 10.0221 25.7012 8.86659 24.1012C7.91103 22.7679 7.16659 21.2956 6.63325 19.6845C6.09992 18.0734 5.83325 16.379 5.83325 14.6012ZM23.5333 23.0012C24.111 23.0012 24.5999 22.7901 24.9999 22.3679C25.3999 21.9456 25.5999 21.4456 25.5999 20.8679C25.5999 20.2901 25.3999 19.8012 24.9999 19.4012C24.5999 19.0012 24.111 18.8012 23.5333 18.8012C22.9555 18.8012 22.4555 19.0012 22.0333 19.4012C21.611 19.8012 21.3999 20.2901 21.3999 20.8679C21.3999 21.4456 21.611 21.9456 22.0333 22.3679C22.4555 22.7901 22.9555 23.0012 23.5333 23.0012ZM23.4999 27.1679C24.2333 27.1679 24.8999 27.0123 25.4999 26.7012C26.0999 26.3901 26.611 25.9456 27.0333 25.3679C26.4555 25.0567 25.8777 24.8234 25.2999 24.6679C24.7221 24.5123 24.1221 24.4345 23.4999 24.4345C22.8777 24.4345 22.2721 24.5123 21.6833 24.6679C21.0944 24.8234 20.5221 25.0567 19.9666 25.3679C20.3888 25.9456 20.8944 26.3901 21.4833 26.7012C22.0721 27.0123 22.7444 27.1679 23.4999 27.1679Z" fill="#41558D"/>
</g>
</svg>
