<svg width="24" height="25" viewBox="0 0 24 25" fill="none" xmlns="http://www.w3.org/2000/svg">
<mask id="mask0_28_4807" style="mask-type:alpha" maskUnits="userSpaceOnUse" x="0" y="0" width="24" height="25">
<rect y="0.928925" width="24" height="24" fill="#83A720"/>
</mask>
<g mask="url(#mask0_28_4807)">
<path d="M6.80005 13.9289L9.70005 16.8289C9.88338 17.0123 9.97505 17.2456 9.97505 17.5289C9.97505 17.8123 9.88338 18.0456 9.70005 18.2289C9.51672 18.4123 9.28338 18.5039 9.00005 18.5039C8.71672 18.5039 8.48338 18.4123 8.30005 18.2289L3.70005 13.6289C3.60005 13.5289 3.52922 13.4206 3.48755 13.3039C3.44588 13.1873 3.42505 13.0623 3.42505 12.9289C3.42505 12.7956 3.44588 12.6706 3.48755 12.5539C3.52922 12.4373 3.60005 12.3289 3.70005 12.2289L8.30005 7.62892C8.48338 7.44559 8.71672 7.35392 9.00005 7.35392C9.28338 7.35392 9.51672 7.44559 9.70005 7.62892C9.88338 7.81226 9.97505 8.04559 9.97505 8.32892C9.97505 8.61226 9.88338 8.84559 9.70005 9.02892L6.80005 11.9289H20C20.2834 11.9289 20.5209 12.0248 20.7125 12.2164C20.9042 12.4081 21 12.6456 21 12.9289C21 13.2123 20.9042 13.4498 20.7125 13.6414C20.5209 13.8331 20.2834 13.9289 20 13.9289H6.80005Z" fill="#83A720"/>
</g>
</svg>
