<svg width="24" height="25" viewBox="0 0 24 25" fill="none" xmlns="http://www.w3.org/2000/svg">
<mask id="mask0_28_4667" style="mask-type:alpha" maskUnits="userSpaceOnUse" x="0" y="0" width="24" height="25">
<rect y="0.928925" width="24" height="24" fill="#D9D9D9"/>
</mask>
<g mask="url(#mask0_28_4667)">
<path d="M16.15 13.9289H5C4.71667 13.9289 4.47917 13.8331 4.2875 13.6414C4.09583 13.4498 4 13.2123 4 12.9289C4 12.6456 4.09583 12.4081 4.2875 12.2164C4.47917 12.0248 4.71667 11.9289 5 11.9289H16.15L13.3 9.07892C13.1 8.87892 13.0042 8.64559 13.0125 8.37892C13.0208 8.11226 13.1167 7.87892 13.3 7.67892C13.5 7.47892 13.7375 7.37476 14.0125 7.36642C14.2875 7.35809 14.525 7.45392 14.725 7.65392L19.3 12.2289C19.4 12.3289 19.4708 12.4373 19.5125 12.5539C19.5542 12.6706 19.575 12.7956 19.575 12.9289C19.575 13.0623 19.5542 13.1873 19.5125 13.3039C19.4708 13.4206 19.4 13.5289 19.3 13.6289L14.725 18.2039C14.525 18.4039 14.2875 18.4998 14.0125 18.4914C13.7375 18.4831 13.5 18.3789 13.3 18.1789C13.1167 17.9789 13.0208 17.7456 13.0125 17.4789C13.0042 17.2123 13.1 16.9789 13.3 16.7789L16.15 13.9289Z" fill="#F6F6F6"/>
</g>
</svg>
