<svg width="14" height="14" viewBox="0 0 14 14" fill="none" xmlns="http://www.w3.org/2000/svg">
<mask id="mask0_28_5162" style="mask-type:alpha" maskUnits="userSpaceOnUse" x="0" y="0" width="14" height="14">
<rect width="14" height="14" fill="#D9D9D9"/>
</mask>
<g mask="url(#mask0_28_5162)">
<path d="M6.41675 6.88152V8.74819C6.41675 8.91347 6.47265 9.05201 6.58446 9.16381C6.69626 9.27562 6.8348 9.33152 7.00008 9.33152C7.16536 9.33152 7.3039 9.27562 7.41571 9.16381C7.52751 9.05201 7.58341 8.91347 7.58341 8.74819V6.88152L8.10841 7.40652C8.21536 7.51347 8.35147 7.56694 8.51675 7.56694C8.68203 7.56694 8.81814 7.51347 8.92508 7.40652C9.03203 7.29958 9.0855 7.16347 9.0855 6.99819C9.0855 6.83291 9.03203 6.6968 8.92508 6.58986L7.40841 5.07319C7.29175 4.95652 7.15564 4.89819 7.00008 4.89819C6.84453 4.89819 6.70841 4.95652 6.59175 5.07319L5.07508 6.58986C4.96814 6.6968 4.91466 6.83291 4.91466 6.99819C4.91466 7.16347 4.96814 7.29958 5.07508 7.40652C5.18203 7.51347 5.31814 7.56694 5.48341 7.56694C5.64869 7.56694 5.7848 7.51347 5.89175 7.40652L6.41675 6.88152ZM7.00008 12.8315C6.19314 12.8315 5.4348 12.6784 4.72508 12.3721C4.01536 12.0659 3.398 11.6503 2.873 11.1253C2.348 10.6003 1.93237 9.98291 1.62612 9.27319C1.31987 8.56347 1.16675 7.80513 1.16675 6.99819C1.16675 6.19124 1.31987 5.43291 1.62612 4.72319C1.93237 4.01347 2.348 3.39611 2.873 2.87111C3.398 2.34611 4.01536 1.93048 4.72508 1.62423C5.4348 1.31798 6.19314 1.16486 7.00008 1.16486C7.80703 1.16486 8.56536 1.31798 9.27508 1.62423C9.9848 1.93048 10.6022 2.34611 11.1272 2.87111C11.6522 3.39611 12.0678 4.01347 12.374 4.72319C12.6803 5.43291 12.8334 6.19124 12.8334 6.99819C12.8334 7.80513 12.6803 8.56347 12.374 9.27319C12.0678 9.98291 11.6522 10.6003 11.1272 11.1253C10.6022 11.6503 9.9848 12.0659 9.27508 12.3721C8.56536 12.6784 7.80703 12.8315 7.00008 12.8315Z" fill="#74A766"/>
</g>
</svg>
