<svg width="156" height="124" viewBox="0 0 156 124" fill="none" xmlns="http://www.w3.org/2000/svg">
<g filter="url(#filter0_d_11_3013)">
<path d="M-44.2758 93.8493L-41.526 90.5942L-35.7973 100.315C-26.6928 96.745 -36.3625 77.4232 -23.9273 73.1839C-18.5127 71.338 -11.9117 87.5114 -4.14403 85.3365C2.92142 83.3582 6.2977 60.7886 13.9435 58.5184C23.8352 55.5814 31.4659 76.5753 42.7706 73.1839C54.0753 69.7925 61.706 46.9004 71.8802 45.2047C82.0545 43.509 93.7128 60.9201 102.5 58.5184C113.893 55.4044 116 38.8235 128 36C140 33.1765 148.874 53.4469 157 49.5C166.892 44.6955 162.601 19.8119 172.794 19.8119L176.243 12.6202" stroke="#C4CADC" stroke-width="2"/>
</g>
<rect x="54" y="32" width="48" height="48" rx="24" fill="#ECEEF4"/>
<mask id="mask0_11_3013" style="mask-type:alpha" maskUnits="userSpaceOnUse" x="62" y="40" width="32" height="32">
<rect x="62" y="40" width="32" height="32" fill="#D9D9D9"/>
</mask>
<g mask="url(#mask0_11_3013)">
<path d="M78.0001 69.3333C76.1556 69.3333 74.4223 68.9833 72.8001 68.2833C71.1779 67.5833 69.7667 66.6333 68.5667 65.4333C67.3667 64.2333 66.4167 62.8222 65.7167 61.2C65.0167 59.5778 64.6667 57.8444 64.6667 56C64.6667 54.1555 65.0167 52.4222 65.7167 50.8C66.4167 49.1778 67.3667 47.7667 68.5667 46.5667C69.7667 45.3667 71.1779 44.4167 72.8001 43.7167C74.4223 43.0167 76.1556 42.6667 78.0001 42.6667C78.289 42.6667 78.5279 42.7611 78.7168 42.95C78.9056 43.1389 79.0001 43.3778 79.0001 43.6667V53.5333C79.489 53.7333 79.889 54.0555 80.2001 54.5C80.5112 54.9444 80.6667 55.4444 80.6667 56C80.6667 56.7333 80.4056 57.3611 79.8834 57.8833C79.3612 58.4055 78.7334 58.6667 78.0001 58.6667C77.2667 58.6667 76.639 58.4055 76.1167 57.8833C75.5945 57.3611 75.3334 56.7333 75.3334 56C75.3334 55.4444 75.489 54.9444 75.8001 54.5C76.1112 54.0555 76.5112 53.7333 77.0001 53.5333V50.0667C75.5556 50.3111 74.3612 50.9833 73.4167 52.0833C72.4723 53.1833 72.0001 54.4889 72.0001 56C72.0001 57.6667 72.5834 59.0833 73.7501 60.25C74.9167 61.4167 76.3334 62 78.0001 62C79.6667 62 81.0834 61.4167 82.2501 60.25C83.4167 59.0833 84.0001 57.6667 84.0001 56C84.0001 55.2889 83.8834 54.6222 83.6501 54C83.4167 53.3778 83.1001 52.8111 82.7001 52.3C82.5223 52.0778 82.4334 51.8222 82.4334 51.5333C82.4334 51.2444 82.5334 51 82.7334 50.8C82.9334 50.6 83.1723 50.5055 83.4501 50.5167C83.7279 50.5278 83.9556 50.6444 84.1334 50.8667C84.7112 51.5778 85.1667 52.3611 85.5001 53.2167C85.8334 54.0722 86.0001 55 86.0001 56C86.0001 58.2222 85.2223 60.1111 83.6667 61.6667C82.1112 63.2222 80.2223 64 78.0001 64C75.7779 64 73.889 63.2222 72.3334 61.6667C70.7779 60.1111 70.0001 58.2222 70.0001 56C70.0001 53.9333 70.6667 52.15 72.0001 50.65C73.3334 49.15 75.0001 48.2778 77.0001 48.0333V44.7C74.089 44.9444 71.639 46.1444 69.6501 48.3C67.6612 50.4555 66.6667 53.0222 66.6667 56C66.6667 59.1555 67.7667 61.8333 69.9667 64.0333C72.1667 66.2333 74.8445 67.3333 78.0001 67.3333C81.1556 67.3333 83.8334 66.2333 86.0334 64.0333C88.2334 61.8333 89.3334 59.1555 89.3334 56C89.3334 54.5555 89.089 53.2 88.6001 51.9333C88.1112 50.6667 87.4223 49.5333 86.5334 48.5333C86.3334 48.3111 86.2279 48.0555 86.2168 47.7667C86.2056 47.4778 86.3001 47.2333 86.5001 47.0333C86.7001 46.8333 86.9445 46.7389 87.2334 46.75C87.5223 46.7611 87.7556 46.8778 87.9334 47.1C89.0001 48.3 89.8334 49.65 90.4334 51.15C91.0334 52.65 91.3334 54.2667 91.3334 56C91.3334 57.8444 90.9834 59.5778 90.2834 61.2C89.5834 62.8222 88.6334 64.2333 87.4334 65.4333C86.2334 66.6333 84.8223 67.5833 83.2001 68.2833C81.5779 68.9833 79.8445 69.3333 78.0001 69.3333Z" fill="#41558D"/>
</g>
<g filter="url(#filter1_d_11_3013)">
<rect x="18.3608" y="51" width="16" height="16" rx="8" transform="rotate(12.1255 18.3608 51)" fill="#99C68D" shape-rendering="crispEdges"/>
<mask id="mask1_11_3013" style="mask-type:alpha" maskUnits="userSpaceOnUse" x="17" y="53" width="15" height="15">
<rect x="19.896" y="53.3755" width="12" height="12" transform="rotate(12.1255 19.896 53.3755)" fill="#D9D9D9"/>
</mask>
<g mask="url(#mask1_11_3013)">
<path d="M28.4813 63.4026L29.101 60.5184L24.7063 61.8116C24.5421 61.8616 24.3786 61.8691 24.2156 61.8341C24.0527 61.7991 23.9066 61.7251 23.7775 61.6121L20.1299 58.4759C20.0507 58.4078 20.0007 58.3331 19.9798 58.2519C19.9589 58.1707 19.9581 58.0853 19.9773 57.9957C19.9966 57.906 20.0324 57.8285 20.0848 57.7631C20.1373 57.6976 20.2135 57.6501 20.3137 57.6204L24.9275 56.2592C25.0096 56.2342 25.0915 56.2199 25.1733 56.2161C25.2551 56.2124 25.3367 56.2193 25.4182 56.2368C25.4997 56.2543 25.5769 56.2815 25.6499 56.3185C25.723 56.3555 25.7918 56.4023 25.8563 56.4588L29.9664 60.0011C30.0392 60.0594 30.0896 60.132 30.1178 60.219C30.146 60.3061 30.1504 60.3944 30.1312 60.484L29.459 63.6126C29.4293 63.7511 29.3575 63.8572 29.2436 63.9307C29.1298 64.0043 29.0036 64.0262 28.8651 63.9964C28.7266 63.9667 28.6206 63.8949 28.547 63.7811C28.4735 63.6672 28.4516 63.5411 28.4813 63.4026ZM23.1473 64.5451L20.9867 62.7001C20.843 62.5755 20.7429 62.4262 20.6866 62.2521C20.6302 62.078 20.6213 61.9014 20.6598 61.7222L21.0589 59.8645L23.6725 62.1009C23.8016 62.2139 23.9477 62.2879 24.1106 62.3229C24.2735 62.3579 24.4371 62.3504 24.6013 62.3005L27.9027 61.3349L27.5036 63.1925C27.4651 63.3718 27.3844 63.5292 27.2615 63.6647C27.1387 63.8003 26.9861 63.8953 26.8039 63.9499L24.0761 64.7447C23.994 64.7697 23.9121 64.784 23.8303 64.7878C23.7486 64.7915 23.6669 64.7846 23.5855 64.7671C23.504 64.7496 23.4267 64.7224 23.3537 64.6854C23.2807 64.6484 23.2119 64.6016 23.1473 64.5451Z" fill="#5B8350"/>
</g>
</g>
<g filter="url(#filter2_d_11_3013)">
<rect x="121" y="31.8477" width="16" height="16" rx="8" transform="rotate(-13.9149 121 31.8477)" fill="#99C68D" shape-rendering="crispEdges"/>
<mask id="mask2_11_3013" style="mask-type:alpha" maskUnits="userSpaceOnUse" x="123" y="30" width="15" height="15">
<rect x="123.422" y="33.308" width="12" height="12" transform="rotate(-13.9149 123.422 33.308)" fill="#D9D9D9"/>
</mask>
<g mask="url(#mask2_11_3013)">
<path d="M128.619 41.8083L128.679 42.0509C128.729 42.2532 128.701 42.4426 128.595 42.6192C128.488 42.7958 128.334 42.9092 128.132 42.9593C127.929 43.0094 127.74 42.9812 127.563 42.8747C127.387 42.7682 127.273 42.6139 127.223 42.4117L126.364 38.9416C126.349 38.885 126.339 38.8273 126.334 38.7687C126.328 38.7101 126.327 38.6545 126.331 38.602L126.601 35.7921C126.617 35.582 126.695 35.3952 126.835 35.2318C126.975 35.0684 127.15 34.9606 127.36 34.9085L132.335 33.676C132.545 33.6239 132.75 33.6375 132.95 33.7167C133.15 33.796 133.307 33.9247 133.419 34.1028L134.97 36.4617C134.998 36.5062 135.023 36.5558 135.045 36.6104C135.067 36.665 135.085 36.7206 135.099 36.7773L135.959 40.2473C136.009 40.4496 135.981 40.639 135.875 40.8156C135.768 40.9922 135.614 41.1056 135.411 41.1557C135.209 41.2058 135.02 41.1776 134.843 41.0711C134.667 40.9646 134.553 40.8103 134.503 40.6081L134.443 40.3654L128.619 41.8083ZM127.44 37.4644L133.458 35.9734L132.588 34.6437L127.589 35.8821L127.44 37.4644ZM128.986 40.1719C129.189 40.1218 129.343 40.0085 129.449 39.8319C129.556 39.6552 129.584 39.4658 129.534 39.2636C129.484 39.0614 129.371 38.907 129.194 38.8005C129.017 38.694 128.828 38.6659 128.626 38.716C128.423 38.7661 128.269 38.8794 128.163 39.056C128.056 39.2327 128.028 39.4221 128.078 39.6243C128.128 39.8265 128.241 39.9809 128.418 40.0874C128.595 40.1938 128.784 40.222 128.986 40.1719ZM133.354 39.0898C133.557 39.0397 133.711 38.9263 133.817 38.7497C133.924 38.5731 133.952 38.3836 133.902 38.1814C133.852 37.9792 133.738 37.8249 133.562 37.7184C133.385 37.6119 133.196 37.5837 132.994 37.6338C132.791 37.6839 132.637 37.7973 132.531 37.9739C132.424 38.1505 132.396 38.3399 132.446 38.5421C132.496 38.7444 132.609 38.8987 132.786 39.0052C132.963 39.1117 133.152 39.1399 133.354 39.0898Z" fill="#5B8350"/>
</g>
</g>
<defs>
<filter id="filter0_d_11_3013" x="-53.0398" y="8.18768" width="238.185" height="105.37" filterUnits="userSpaceOnUse" color-interpolation-filters="sRGB">
<feFlood flood-opacity="0" result="BackgroundImageFix"/>
<feColorMatrix in="SourceAlpha" type="matrix" values="0 0 0 0 0 0 0 0 0 0 0 0 0 0 0 0 0 0 127 0" result="hardAlpha"/>
<feOffset dy="4"/>
<feGaussianBlur stdDeviation="4"/>
<feComposite in2="hardAlpha" operator="out"/>
<feColorMatrix type="matrix" values="0 0 0 0 0.254902 0 0 0 0 0.333333 0 0 0 0 0.552941 0 0 0 0.2 0"/>
<feBlend mode="normal" in2="BackgroundImageFix" result="effect1_dropShadow_11_3013"/>
<feBlend mode="normal" in="SourceGraphic" in2="effect1_dropShadow_11_3013" result="shape"/>
</filter>
<filter id="filter1_d_11_3013" x="11" y="49" width="27.0039" height="27.0039" filterUnits="userSpaceOnUse" color-interpolation-filters="sRGB">
<feFlood flood-opacity="0" result="BackgroundImageFix"/>
<feColorMatrix in="SourceAlpha" type="matrix" values="0 0 0 0 0 0 0 0 0 0 0 0 0 0 0 0 0 0 127 0" result="hardAlpha"/>
<feOffset dy="2"/>
<feGaussianBlur stdDeviation="2"/>
<feComposite in2="hardAlpha" operator="out"/>
<feColorMatrix type="matrix" values="0 0 0 0 0.454902 0 0 0 0 0.654902 0 0 0 0 0.4 0 0 0 0.04 0"/>
<feBlend mode="normal" in2="BackgroundImageFix" result="effect1_dropShadow_11_3013"/>
<feBlend mode="normal" in="SourceGraphic" in2="effect1_dropShadow_11_3013" result="shape"/>
</filter>
<filter id="filter2_d_11_3013" x="117" y="26" width="27.3782" height="27.3781" filterUnits="userSpaceOnUse" color-interpolation-filters="sRGB">
<feFlood flood-opacity="0" result="BackgroundImageFix"/>
<feColorMatrix in="SourceAlpha" type="matrix" values="0 0 0 0 0 0 0 0 0 0 0 0 0 0 0 0 0 0 127 0" result="hardAlpha"/>
<feOffset dy="2"/>
<feGaussianBlur stdDeviation="2"/>
<feComposite in2="hardAlpha" operator="out"/>
<feColorMatrix type="matrix" values="0 0 0 0 0.454902 0 0 0 0 0.654902 0 0 0 0 0.4 0 0 0 0.04 0"/>
<feBlend mode="normal" in2="BackgroundImageFix" result="effect1_dropShadow_11_3013"/>
<feBlend mode="normal" in="SourceGraphic" in2="effect1_dropShadow_11_3013" result="shape"/>
</filter>
</defs>
</svg>
