<svg width="48" height="48" viewBox="0 0 48 48" fill="none" xmlns="http://www.w3.org/2000/svg">
<rect width="48" height="48" rx="24" fill="#ECEEF4"/>
<mask id="mask0_28_5186" style="mask-type:alpha" maskUnits="userSpaceOnUse" x="8" y="8" width="32" height="32">
<rect x="8" y="8" width="32" height="32" fill="#D9D9D9"/>
</mask>
<g mask="url(#mask0_28_5186)">
<path d="M30.9999 38.6667C30.7333 38.6667 30.4999 38.5667 30.2999 38.3667C30.0999 38.1667 29.9999 37.9333 29.9999 37.6667C29.9999 37.3778 30.0944 37.1389 30.2833 36.95C30.4721 36.7611 30.711 36.6667 30.9999 36.6667C32.5999 36.6667 33.9444 36.1167 35.0333 35.0167C36.1221 33.9167 36.6666 32.5778 36.6666 31C36.6666 30.7111 36.761 30.4722 36.9499 30.2833C37.1388 30.0945 37.3777 30 37.6666 30C37.9333 30 38.1666 30.1 38.3666 30.3C38.5666 30.5 38.6666 30.7333 38.6666 31C38.6666 33.1333 37.9166 34.9445 36.4166 36.4333C34.9166 37.9222 33.111 38.6667 30.9999 38.6667ZM10.3333 18.0333C10.0666 18.0333 9.83325 17.9333 9.63325 17.7333C9.43325 17.5333 9.33325 17.3 9.33325 17.0333C9.33325 14.9 10.0833 13.0833 11.5833 11.5833C13.0833 10.0833 14.8888 9.33334 16.9999 9.33334C17.2888 9.33334 17.5333 9.43334 17.7333 9.63334C17.9333 9.83334 18.0333 10.0667 18.0333 10.3333C18.0333 10.6222 17.9388 10.8611 17.7499 11.05C17.561 11.2389 17.3221 11.3333 17.0333 11.3333C15.4555 11.3333 14.111 11.8833 12.9999 12.9833C11.8888 14.0833 11.3333 15.4222 11.3333 17C11.3333 17.2889 11.2388 17.5333 11.0499 17.7333C10.861 17.9333 10.6221 18.0333 10.3333 18.0333ZM14.4999 33.3667C12.4777 31.3445 11.461 28.9222 11.4499 26.1C11.4388 23.2778 12.4444 20.8556 14.4666 18.8333L16.6999 16.6C17.0555 16.2445 17.3833 16.1611 17.6833 16.35C17.9833 16.5389 18.2555 16.7556 18.4999 17C18.9666 17.4667 19.2055 18.0222 19.2166 18.6667C19.2277 19.3111 18.9888 19.8778 18.4999 20.3667L16.9666 21.9C16.7666 22.1 16.6666 22.3333 16.6666 22.6C16.6666 22.8667 16.7666 23.1 16.9666 23.3L17.3666 23.7333C17.9666 24.3333 18.2666 25.0611 18.2666 25.9167C18.2666 26.7722 17.9666 27.5 17.3666 28.1C17.211 28.2556 17.1333 28.4445 17.1333 28.6667C17.1333 28.8889 17.211 29.0778 17.3666 29.2333C17.5221 29.3889 17.711 29.4667 17.9333 29.4667C18.1555 29.4667 18.3444 29.3889 18.4999 29.2333C19.411 28.3222 19.8666 27.2222 19.8666 25.9333C19.8666 24.6445 19.411 23.5445 18.4999 22.6333L19.5999 21.5C20.0666 21.0333 20.3999 20.5056 20.5999 19.9167C20.7999 19.3278 20.8444 18.7556 20.7333 18.2L26.2999 12.6333C26.4999 12.4333 26.7388 12.3333 27.0166 12.3333C27.2944 12.3333 27.5333 12.4333 27.7333 12.6333C27.9333 12.8333 28.0333 13.0722 28.0333 13.35C28.0333 13.6278 27.9333 13.8667 27.7333 14.0667L20.4333 21.3667L22.4666 23.4L31.6666 14.2333C31.8666 14.0333 32.0999 13.9333 32.3666 13.9333C32.6333 13.9333 32.8666 14.0333 33.0666 14.2333C33.2666 14.4333 33.3666 14.6667 33.3666 14.9333C33.3666 15.2 33.2666 15.4333 33.0666 15.6333L23.8999 24.8L25.9333 26.8667L34.1666 18.6333C34.3666 18.4333 34.6055 18.3333 34.8833 18.3333C35.161 18.3333 35.3999 18.4333 35.5999 18.6333C35.7999 18.8333 35.8999 19.0667 35.8999 19.3333C35.8999 19.6 35.7999 19.8333 35.5999 20.0333L27.3666 28.2667L29.3999 30.3333L35.6999 24.0333C35.8999 23.8333 36.1388 23.7333 36.4166 23.7333C36.6944 23.7333 36.9333 23.8333 37.1333 24.0333C37.3333 24.2333 37.4333 24.4667 37.4333 24.7333C37.4333 25 37.3333 25.2333 37.1333 25.4333L29.0999 33.4667C27.0777 35.4889 24.6499 36.4889 21.8166 36.4667C18.9833 36.4445 16.5444 35.4111 14.4999 33.3667Z" fill="#41558D"/>
</g>
</svg>
