<svg width="35" height="38" viewBox="0 0 35 38" fill="none" xmlns="http://www.w3.org/2000/svg">
<path d="M8.84961 4.74857C11.3225 3.13011 14.2964 2.18625 17.4955 2.18625C24.5906 2.18625 30.5767 6.8284 32.4499 13.1757" stroke="#D7EFA3" stroke-width="3.78395" stroke-linecap="round" stroke-linejoin="round"/>
<path d="M33.0583 36V22.4745" stroke="#D7EFA3" stroke-width="3.78395" stroke-linecap="round" stroke-linejoin="round"/>
<path d="M1.93286 36V17.4024C1.93286 15.624 2.24491 13.9168 2.81841 12.3304" stroke="#D7EFA3" stroke-width="3.78395" stroke-linecap="round" stroke-linejoin="round"/>
<path d="M27.8709 36V17.9097C27.8709 12.0271 23.2257 7.25833 17.4957 7.25833C11.7657 7.25833 7.12061 12.0271 7.12061 17.9097V22.4745" stroke="#D7EFA3" stroke-width="3.78395" stroke-linecap="round" stroke-linejoin="round"/>
<path d="M7.12061 36V29.2372" stroke="#D7EFA3" stroke-width="3.78395" stroke-linecap="round" stroke-linejoin="round"/>
<path d="M12.3079 36V17.656C12.3079 14.7147 14.6303 12.3304 17.4954 12.3304C18.9917 12.3304 20.3399 12.9807 21.2868 14.021" stroke="#D7EFA3" stroke-width="3.78395" stroke-linecap="round" stroke-linejoin="round"/>
<path d="M22.6829 36V22.4745" stroke="#D7EFA3" stroke-width="3.78395" stroke-linecap="round" stroke-linejoin="round"/>
<path d="M17.4956 36V30.0826" stroke="#D7EFA3" stroke-width="3.78395" stroke-linecap="round" stroke-linejoin="round"/>
<path d="M17.4956 17.4024V22.4745" stroke="#D7EFA3" stroke-width="3.78395" stroke-linecap="round" stroke-linejoin="round"/>
</svg>
